<svg xmlns="http://www.w3.org/2000/svg" width="144" height="30" viewBox="0 0 144 30">
    <path d="M37.26 5.93h3.18v17.39h-3.18zm17.95 10.89h7.84a6.18 6.18 0 0 1-2.52 2.94A8.72 8.72 0 0 1 56 20.87a10.59 10.59 0 0 1-3.23-.46 7.39 7.39 0 0 1-2.46-1.3 5.74 5.74 0 0 1-1.56-2 5.83 5.83 0 0 1-.55-2.52 5.64 5.64 0 0 1 2.47-4.7A7.94 7.94 0 0 1 53 8.75a10.17 10.17 0 0 1 3-.42 9.42 9.42 0 0 1 3.8.71 8.79 8.79 0 0 1 2.89 2.08l.09.1 3-1.48-.15-.17a11.93 11.93 0 0 0-4.23-3.18 12.83 12.83 0 0 0-5.19-1 15 15 0 0 0-4.33.6 10.64 10.64 0 0 0-3.47 1.75 8.27 8.27 0 0 0-3.53 6.87 8.29 8.29 0 0 0 3.48 6.89 11.33 11.33 0 0 0 3.39 1.7 14 14 0 0 0 4.22.62 14.4 14.4 0 0 0 4.54-.68A10.2 10.2 0 0 0 64 21.21a8.65 8.65 0 0 0 2.23-3 9.27 9.27 0 0 0 .77-3.85v-.43H55.21zm37.5-9.39a5.18 5.18 0 0 0-1.85-1.11 7.2 7.2 0 0 0-2.41-.39H74.76v17.39h3.18v-6.5h10a7.18 7.18 0 0 0 4.75-1.38 5 5 0 0 0 1.64-4 6 6 0 0 0-.41-2.25 5 5 0 0 0-1.21-1.76zm-2.42 5.87h0a3.64 3.64 0 0 1-2.33.64h-10V8.82h9.82c2.22 0 3.22.87 3.22 2.65a2.2 2.2 0 0 1-.71 1.82zm23.18 2.83a4.85 4.85 0 0 0 1.46-1 4.54 4.54 0 0 0 1-1.55 5.83 5.83 0 0 0 .34-2.06 5.34 5.34 0 0 0-1.57-4.06 6.1 6.1 0 0 0-4.34-1.48H96.71v17.34h3.18v-6.5h8.34l4.61 6.49h3.7l-4.6-6.69a7.12 7.12 0 0 0 1.53-.49zM99.89 8.82h9.75c2.26 0 3.35.87 3.35 2.65a2.19 2.19 0 0 1-.77 1.82 3.64 3.64 0 0 1-2.32.64h-10zm37.88-1.09A11 11 0 0 0 134.38 6 14.38 14.38 0 0 0 126 6a11.37 11.37 0 0 0-3.41 1.72 8.3 8.3 0 0 0-3.55 6.87 8.27 8.27 0 0 0 3.51 6.89 11.31 11.31 0 0 0 3.41 1.7 14.79 14.79 0 0 0 8.43 0 11.16 11.16 0 0 0 3.38-1.69 8.29 8.29 0 0 0 3.51-6.92 8.31 8.31 0 0 0-3.51-6.84zm-7.57 13.14a10.8 10.8 0 0 1-3.26-.46 7.51 7.51 0 0 1-2.47-1.29 5.63 5.63 0 0 1-1.56-2 5.88 5.88 0 0 1-.55-2.55 5.58 5.58 0 0 1 .57-2.5 6 6 0 0 1 1.6-2A7.71 7.71 0 0 1 127 8.8a10.28 10.28 0 0 1 3.2-.47 10.14 10.14 0 0 1 3 .42 8 8 0 0 1 2.37 1.15 5.64 5.64 0 0 1 2.43 4.7 5.89 5.89 0 0 1-.55 2.55 5.7 5.7 0 0 1-1.55 2 7.39 7.39 0 0 1-2.45 1.29 10.68 10.68 0 0 1-3.25.43z" fill="#fff"></path>
    <path d="M24.31 10.17V6.66L12.27.12V0l-.1.06-.11-.06v.12L.07 6.71v3.51l12.1-6.65 12.14 6.6zm-.18 2.44v-.04H12.2v2.8h9.39v4.09l-9.42 5.13-9.38-5.2v-8.06L0 12.8v8.23l.02.01v.45l2.79 1.52v-.11l9.25 5.14v.12l.11-.06.1.06v-.12l12.04-6.55h.07v-8.88h-.25z" fill="#c58f45"></path>
    <path d="M147.89 16.23h-.68v6.43h6.02v-.56h-5.34v-5.87zm7.37 6.43h.68v-5.88h3.31v-.57h-7.29v.57h3.3v5.88zm13.22-1.89a3 3 0 0 0 .26-1.26 3.54 3.54 0 0 0-.25-1.37 2.85 2.85 0 0 0-.72-1 3.33 3.33 0 0 0-1.15-.66 4.73 4.73 0 0 0-1.56-.24h-4.14v6.45h4.36a4 4 0 0 0 1.33-.22 3.28 3.28 0 0 0 1.09-.64 3.05 3.05 0 0 0 .78-1.06zm-2.07 1.13a2.73 2.73 0 0 1-1 .19h-3.78v-5.31h3.56a3.23 3.23 0 0 1 1.14.19 2.58 2.58 0 0 1 .89.55 2.5 2.5 0 0 1 .58.86 2.89 2.89 0 0 1 .2 1.1 2.77 2.77 0 0 1-.19 1h0a2.54 2.54 0 0 1-.54.83 2.44 2.44 0 0 1-.86.6z" fill="#fff"></path>
</svg>